# File created by Blade
# Date/Time:  Thu Jan 22 16:10:14 2015
# Frame Rate: 120.000 fps
#------------------------------------------------------
:FULLY-SPECIFIED
:DEGREES
966
root -0.427011 33.816794 -2.746705 30.186745 24.924219 -12.529914
RightUpLeg -28.237206 -24.442759 2.923596
RightLeg -7.454368 -0.000000 0.000000
RightFoot -3.730898 -32.375947 32.932194
RightToeBase 13.257636 -0.000000 -0.000000
LeftUpLeg -54.812486 10.618138 35.792204
LeftLeg 14.470616 -0.000000 -0.000000
LeftFoot 1.708660 10.665858 -37.534425
LeftToeBase 10.014682 -0.000000 -0.000000
Spine 52.490888 -2.616509 -46.903959
RightShoulder -1.197047 -9.956959 -35.537039
RightArm -2.666759 20.841528 28.953599
RightForeArm 31.354367 -0.000000 15.466692
RightHand 7.194560 0.000000 -29.517409
RightHandThumb1 -24.326973 -0.000000 -32.862282
LeftShoulder -1.771777 21.768862 31.900115
LeftArm 38.709200 -49.248819 -40.571830
LeftForeArm 30.627852 0.000000 6.307900
LeftHand -15.269033 -0.000000 -0.633506
LeftHandThumb1 -26.253704 0.000000 33.147579
Head -6.213432 -13.218585 -27.992589
967
root -0.417843 33.817405 -2.750498 30.285489 24.987355 -12.435159
RightUpLeg -28.283630 -24.510946 2.866474
RightLeg -7.460643 -0.000000 0.000000
RightFoot -3.783543 -32.397159 33.014156
RightToeBase 13.289477 -0.000000 -0.000000
LeftUpLeg -54.889216 10.600933 35.672974
LeftLeg 14.377622 -0.000000 -0.000000
LeftFoot 1.790817 10.643209 -37.471677
LeftToeBase 9.939560 -0.000000 -0.000000
Spine 52.506069 -2.616498 -46.844211
RightShoulder -1.187499 -9.941342 -35.520391
RightArm -2.417842 20.855232 28.901802
RightForeArm 31.399724 -0.000000 15.401607
RightHand 7.203966 -0.000000 -29.555112
RightHandThumb1 -24.326973 -0.000000 -32.862282
LeftShoulder -1.757608 21.699863 31.937747
LeftArm 38.731681 -49.288862 -40.657193
LeftForeArm 30.638683 -0.000000 6.285170
LeftHand -15.311876 -0.000000 -0.583943
LeftHandThumb1 -26.253704 0.000000 33.147579
Head -6.151186 -13.167922 -27.980614
968
root -0.410758 33.818340 -2.754406 30.365900 25.066185 -12.359148
RightUpLeg -28.307598 -24.572380 2.821557
RightLeg -7.483844 -0.000000 0.000000
RightFoot -3.807239 -32.437061 33.069366
RightToeBase 13.243035 -0.000000 -0.000000
LeftUpLeg -54.971149 10.580496 35.579374
LeftLeg 14.304570 -0.000000 -0.000000
LeftFoot 1.872317 10.560421 -37.440128
LeftToeBase 10.116033 -0.000000 -0.000000
Spine 52.532669 -2.670061 -46.796900
RightShoulder -1.124991 -9.884346 -35.543472
RightArm -2.146762 20.954339 28.846905
RightForeArm 31.397176 -0.000000 15.336571
RightHand 7.153134 -0.000000 -29.508810
RightHandThumb1 -24.326973 -0.000000 -32.862282
LeftShoulder -1.836393 21.708325 31.862334
LeftArm 38.719182 -49.257654 -40.576412
LeftForeArm 30.516386 0.000000 6.245003
LeftHand -15.263192 -0.000000 -0.564487
LeftHandThumb1 -26.253704 0.000000 33.147579
Head -6.102023 -13.048625 -28.020080
969
root -0.403869 33.819755 -2.757268 30.441918 25.136049 -12.279061
RightUpLeg -28.331681 -24.636041 2.774180
RightLeg -7.498244 -0.000000 0.000000
RightFoot -3.815020 -32.458804 33.090375
RightToeBase 13.266626 -0.000000 -0.000000
LeftUpLeg -55.024973 10.548752 35.487584
LeftLeg 14.200616 -0.000000 -0.000000
LeftFoot 1.950954 10.548366 -37.395846
LeftToeBase 10.057253 -0.000000 -0.000000
Spine 52.558975 -2.705598 -46.771941
RightShoulder -1.076970 -9.722251 -35.538519
RightArm -1.878509 20.908361 28.746381
RightForeArm 31.397546 -0.000000 15.247066
RightHand 7.167872 -0.000000 -29.444772
RightHandThumb1 -24.326973 -0.000000 -32.862282
LeftShoulder -1.908534 21.689786 31.846314
LeftArm 38.820981 -49.310876 -40.708502
LeftForeArm 30.504820 -0.000000 6.180515
LeftHand -15.156443 0.000000 -0.814291
LeftHandThumb1 -26.253704 0.000000 33.147579
Head -6.069995 -12.927870 -28.003659
